<?xml version="1.0" encoding="UTF-8"?>
<svg id="Layer_10" data-name="Layer 10" xmlns="http://www.w3.org/2000/svg" viewBox="0 0 1224 374.73">
  <defs>
    <style>
      .cls-1 {
        letter-spacing: 0em;
      }

      .cls-2 {
        fill: #414042;
        font-family: Livvic-Bold, Livvic;
        font-size: 96px;
        font-weight: 700;
      }

      .cls-3 {
        letter-spacing: 0em;
      }

      .cls-4 {
        fill: #5367b0;
      }

      .cls-4, .cls-5 {
        stroke-width: 0px;
      }

      .cls-5 {
        fill: #dec336;
      }

      .cls-6 {
        letter-spacing: 0em;
      }
    </style>
  </defs>
  <text class="cls-2" transform="translate(354.33 239.65)"><tspan class="cls-1" x="0" y="0">K</tspan><tspan x="64.32" y="0">ay</tspan><tspan class="cls-3" x="182.59" y="0">l</tspan><tspan class="cls-6" x="211.78" y="0">ee Designs</tspan></text>
  <g>
    <path class="cls-4" d="m206.99,91.54h-66.75c-7.82,0-14.16,6.34-14.16,14.16v91.33c0,.8,1.02,1.14,1.5.5l11.68-15.66,68.38-88.99c.42-.55.03-1.34-.66-1.34Z"/>
    <path class="cls-4" d="m139.27,215.55l-11.7-14.22c-.5-.6-1.47-.25-1.47.53v88.99c0,10.87,8.81,19.68,19.68,19.68h64.55s.02,0,.03,0c1.21,0,1.89-1.41,1.14-2.36l-72.22-92.61Z"/>
    <path class="cls-5" d="m309.64,159.36c-5.62-13.26-13.31-24.88-23.09-34.85-2.63-2.68-5.38-5.22-8.26-7.61-6.68-5.57-16.59-4.74-22.17,1.92l-54.88,65.52c-5.29,6.31-5.32,15.5-.09,21.85l61.81,75.05c4.64,5.64,13.06,6.27,18.48,1.38,1.85-1.67,3.65-3.4,5.39-5.19,9.77-10.07,17.43-21.73,22.94-35,5.52-13.26,8.28-27.06,8.28-41.39s-2.81-28.41-8.42-41.68Z"/>
  </g>
</svg>