<?xml version="1.0" encoding="UTF-8"?>
<svg id="Layer_10" data-name="Layer 10" xmlns="http://www.w3.org/2000/svg" viewBox="0 0 426.37 442.86">
  <defs>
    <style>
      .cls-1 {
        fill: #5367b0;
      }

      .cls-1, .cls-2 {
        stroke-width: 0px;
      }

      .cls-2 {
        fill: #dec336;
      }
    </style>
  </defs>
  <path class="cls-1" d="m195.43,56.17h-102.99c-12.07,0-21.85,9.78-21.85,21.85v140.94c0,1.24,1.57,1.76,2.31.77l18.02-24.17L196.45,58.24c.65-.84.05-2.07-1.02-2.07Z"/>
  <path class="cls-1" d="m90.93,247.53l-18.06-21.95c-.77-.93-2.28-.39-2.28.82v137.32c0,16.77,13.59,30.36,30.36,30.36h99.6s.03,0,.05,0c1.87,0,2.91-2.17,1.76-3.64l-111.44-142.9Z"/>
  <path class="cls-2" d="m353.83,160.81c-8.67-20.46-20.55-38.39-35.63-53.78-4.06-4.14-8.31-8.05-12.74-11.75-10.31-8.59-25.6-7.32-34.21,2.97l-84.68,101.11c-8.16,9.74-8.22,23.91-.14,33.72l95.38,115.8c7.17,8.7,20.15,9.67,28.52,2.13,2.85-2.57,5.63-5.24,8.32-8.02,15.08-15.53,26.89-33.54,35.41-54,8.51-20.46,12.77-41.75,12.77-63.86s-4.33-43.84-13-64.31Z"/>
</svg>