<?xml version="1.0" encoding="UTF-8"?>
<svg id="Layer_3" data-name="Layer 3" xmlns="http://www.w3.org/2000/svg" viewBox="0 0 425.68 411.71">
  <defs>
    <style>
      .cls-1 {
        fill: #48562d;
      }

      .cls-1, .cls-2, .cls-3, .cls-4, .cls-5, .cls-6, .cls-7, .cls-8, .cls-9, .cls-10, .cls-11, .cls-12 {
        stroke-width: 0px;
      }

      .cls-2 {
        fill: #56573d;
      }

      .cls-3 {
        fill: #99c63f;
      }

      .cls-4 {
        fill: #39401e;
      }

      .cls-5 {
        fill: #3a411e;
      }

      .cls-6 {
        fill: #3c421f;
      }

      .cls-7 {
        fill: #414525;
      }

      .cls-8 {
        fill: #a0c34f;
      }

      .cls-9 {
        fill: #9bc049;
      }

      .cls-10 {
        fill: #fffffe;
      }

      .cls-11 {
        fill: #69a244;
      }

      .cls-12 {
        fill: #669d43;
      }
    </style>
  </defs>
  <path class="cls-10" d="m237.38,159.61c-.83,1.81-1.66,3.61-2.49,5.42-2.53,3.58-5.06,7.17-7.6,10.75-1.26-2.62-2.51-5.24-3.77-7.86-6.05-10.92-12.11-21.84-18.16-32.76l.07.07c-1.73-2.08-3.46-4.16-5.19-6.25-1.6-1.62-3.2-3.24-4.8-4.86-1.13-1.05-2.26-2.1-3.39-3.14-.15-.99-.72-1.53-1.72-1.61-1.31-1.07-2.62-2.15-3.93-3.22-1-.76-2.01-1.52-3.01-2.29-1.78-1.52-3.56-3.03-5.34-4.55-17.08-7.03-34.16-14.06-51.24-21.08h-9.8c24.79,26.42,20.45,52.69,5.5,79.48-3.67,6.59-6.46,13.67-9.65,20.53-4.27,18.37-10.78,36.58-12.11,55.16-1.1,15.34,2.12,31.78,15.16,43.46l-.06-.06c1.34,1.73,2.68,3.47,4.02,5.2,15.29,18.85,35.59,29.41,58.8,34.53,12.94,2.85,25.93,3.01,36.82-6.74,3.71-14.75,7.42-29.5,11.14-44.25,6.54,9.2,12.43,18.99,19.97,27.28,2.67,2.93,9.38,2.17,14.24,3.09,1.25-1,2.51-2,3.76-3,22.55-6.33,40.98-28.23,40.15-53.5-.75-22.99-5.53-45.93-9.49-68.72-3.64-20.93-8.55-41.63-13.45-65.08-1.01.18-6.22-.11-10.13,2.01-13.63,7.37-24.08,17.85-28.19,33.44-.25.84-.5,1.67-.74,2.51-1.77,1.98-3.53,3.97-5.3,5.95,0,0-.05.11-.05.11Z"/>
  <path class="cls-3" d="m226.6,275.53c-3.71,14.75-7.42,29.5-11.14,44.25-2.39-2.08-4.78-4.16-7.18-6.24-33.9-41.26-48.22-88.77-46.22-142.1-2.82,15.95-4.63,31.84-3.78,47.59,1.89,35.34,15.56,67,33.18,97.16-5.26-.96-10.72-1.34-15.77-2.97-48.8-15.75-70.1-57.51-52.99-105.1,5-13.9,12.65-26.81,18.62-40.39,7.86-17.88,14.01-36.08,4.46-58.12,8.09,2.04,14.8,2.7,20.57,5.38,19.34,8.98,32.41,24.87,44.09,42.06.89,1.86,1.78,3.72,2.67,5.59h-.3c3.63,11.53,7.68,22.95,10.75,34.62,2.54,9.68,3.92,19.66,5.81,29.51-.93,16.25-1.85,32.51-2.78,48.76Z"/>
  <path class="cls-7" d="m208.29,313.55c2.39,2.08,4.78,4.16,7.18,6.24-10.89,9.75-23.88,9.59-36.82,6.74-23.21-5.12-43.51-15.68-58.8-34.53-1.34-1.73-2.68-3.47-4.01-5.2,0,0,.06.06.06.06-2.61-8-5.5-15.92-7.79-24.01-6.78-23.97-1.66-47.08,5.54-69.99,6.19-11.31,12.38-22.61,18.56-33.92,13.51-24.74,13.03-48.41-5.4-70.71,17.08,7.03,34.16,14.06,51.24,21.08,1.78,1.52,3.56,3.03,5.34,4.55,1,.76,2.01,1.52,3.01,2.29,1.31,1.07,2.62,2.15,3.93,3.22,1,.09,1.57.62,1.72,1.61,1.13,1.05,2.26,2.1,3.39,3.14,1.6,1.62,3.2,3.24,4.8,4.86,1.73,2.08,3.46,4.16,5.19,6.25,0,0-.07-.07-.07-.07,2.65,7.28,5.3,14.56,7.96,21.84-.95.02-1.9.03-2.85.05-11.69-17.19-24.75-33.08-44.09-42.06-5.77-2.68-12.47-3.33-20.57-5.38,9.55,22.03,3.4,40.24-4.46,58.12-5.97,13.57-13.62,26.49-18.62,40.39-17.11,47.59,4.19,89.36,52.99,105.1,5.05,1.63,10.5,2.01,15.77,2.97,5.61-.88,11.21-1.77,16.82-2.65Z"/>
  <path class="cls-1" d="m243.47,151.04c4.12-15.59,14.57-26.07,28.19-33.44,3.91-2.11,9.12-1.83,10.13-2.01,4.9,23.44,9.82,44.15,13.45,65.08,3.96,22.79,8.73,45.73,9.49,68.72.83,25.28-17.6,47.17-40.15,53.5,0,0-.72-.7-.72-.69.19-2.27.39-4.54.58-6.81,5.29-5.02,12.11-9.16,15.59-15.22,13.64-23.76,11.86-49.37,5.69-74.72-5.08-20.88-11.56-41.41-17.42-62.1-.4-2.99-.81-5.97-1.28-9.46-8.25,6.01-15.9,11.58-23.55,17.15Z"/>
  <path class="cls-11" d="m243.47,151.04c7.65-5.57,15.3-11.14,23.55-17.15.47,3.48.88,6.47,1.27,9.46-4.69,3.07-9.86,5.6-13.93,9.34-4.4,4.05-8.14,8.97-11.48,13.97-3.13,4.68-7.47,9.94-7.5,14.96-.05,7.85,3.1,15.72,4.89,23.58-8.37,18.36-6.51,37-.75,55.42,4.83,15.43,8.37,31.8,22.75,42.19-.48,1.03-.97,2.07-1.45,3.1-4.87-.92-11.58-.16-14.24-3.09-7.54-8.28-13.43-18.08-19.97-27.28.92-16.25,1.85-32.51,2.78-48.76-.7-17-1.39-33.99-2.09-50.99,2.53-3.58,5.06-7.17,7.6-10.75.83-1.81,1.66-3.62,2.49-5.42,0,0,.05-.11.05-.11,1.77-1.98,3.53-3.97,5.3-5.95.25-.84.5-1.67.74-2.51Z"/>
  <path class="cls-9" d="m126.79,88.22c18.43,22.3,18.91,45.97,5.4,70.71-6.18,11.31-12.37,22.61-18.56,33.92-.26-1.54-.53-3.08-.79-4.62,3.19-6.86,5.98-13.94,9.65-20.53,14.94-26.79,19.29-53.06-5.5-79.48h9.8Z"/>
  <path class="cls-8" d="m112.84,188.23c.26,1.54.53,3.08.79,4.62-7.2,22.91-12.32,46.02-5.54,69.99,2.29,8.09,5.18,16.01,7.79,24.01-13.04-11.68-16.26-28.12-15.16-43.46,1.33-18.58,7.84-36.79,12.11-55.16Z"/>
  <path class="cls-5" d="m227.29,175.78c.7,17,1.4,33.99,2.09,50.99-1.89-9.85-3.27-19.83-5.81-29.51-3.06-11.67-7.12-23.09-10.74-34.61,3.56,1.76,7.13,3.51,10.69,5.27,1.26,2.62,2.51,5.24,3.77,7.86Z"/>
  <path class="cls-2" d="m223.52,167.92c-3.56-1.76-7.12-3.51-10.69-5.27,0,0,.3,0,.3-.01.06-1.88.12-3.76.18-5.64-2.65-7.28-5.3-14.56-7.96-21.84,6.05,10.92,12.11,21.84,18.16,32.76Z"/>
  <path class="cls-2" d="m205.42,135.22c-1.73-2.08-3.46-4.16-5.19-6.25,1.73,2.08,3.46,4.16,5.19,6.25Z"/>
  <path class="cls-2" d="m183.38,113.85c-1.78-1.52-3.56-3.03-5.34-4.55,1.78,1.52,3.56,3.03,5.34,4.55Z"/>
  <path class="cls-12" d="m242.72,153.55c-1.77,1.98-3.53,3.96-5.3,5.95,1.77-1.98,3.53-3.97,5.3-5.95Z"/>
  <path class="cls-1" d="m260.82,305.9c.48-1.03.97-2.07,1.45-3.1.53-.19,1.06-.39,1.58-.6,0,0,.72.7.72.7-1.25,1-2.51,2-3.76,3Z"/>
  <path class="cls-2" d="m190.32,119.36c-1.31-1.07-2.62-2.15-3.93-3.22,1.31,1.07,2.62,2.15,3.93,3.22Z"/>
  <path class="cls-12" d="m237.38,159.61c-.83,1.81-1.66,3.62-2.49,5.42.83-1.81,1.66-3.62,2.49-5.42Z"/>
  <path class="cls-8" d="m115.83,286.79c1.34,1.73,2.67,3.46,4.01,5.2-1.33-1.73-2.67-3.47-4.01-5.2Z"/>
  <path class="cls-2" d="m195.43,124.12c-1.13-1.05-2.26-2.1-3.39-3.14,1.13,1.05,2.26,2.1,3.39,3.14Z"/>
  <path class="cls-6" d="m208.29,313.55c-5.61.88-11.21,1.77-16.82,2.65-17.62-30.15-31.29-61.82-33.18-97.16-.84-15.75.96-31.64,3.78-47.59-2,53.33,12.32,100.84,46.22,142.1Z"/>
  <path class="cls-5" d="m213.32,157c-.06,1.88-.12,3.76-.18,5.64-.89-1.86-1.78-3.72-2.67-5.59.95-.02,1.9-.03,2.85-.05Z"/>
  <path class="cls-12" d="m240.27,205.19c-1.79-7.86-4.94-15.73-4.89-23.58.03-5.03,4.37-10.29,7.5-14.96,3.34-5,7.08-9.92,11.48-13.97,4.06-3.74,9.23-6.27,13.93-9.34,5.87,20.69,12.35,41.22,17.43,62.1,6.17,25.36,7.95,50.96-5.69,74.72-3.48,6.06-10.3,10.2-15.59,15.22-12.35-18.72-19.34-39.27-21.22-61.62-.81-9.54-1.95-19.05-2.94-28.58Z"/>
  <path class="cls-4" d="m240.27,205.19c.99,9.53,2.14,19.04,2.94,28.58,1.89,22.34,8.88,42.89,21.22,61.62-.19,2.27-.38,4.55-.58,6.82-.53.21-1.06.41-1.59.6-14.38-10.39-17.92-26.76-22.75-42.19-5.77-18.41-7.63-37.06.75-55.42Z"/>
</svg>