<?xml version="1.0" encoding="UTF-8"?>
<svg id="Layer_2" data-name="Layer 2" xmlns="http://www.w3.org/2000/svg" viewBox="0 0 360 360">
  <defs>
    <style>
      .cls-1, .cls-2 {
        stroke: #fff;
        stroke-width: 4px;
      }

      .cls-1, .cls-2, .cls-3 {
        stroke-miterlimit: 10;
      }

      .cls-1, .cls-4 {
        fill: #fff;
      }

      .cls-2, .cls-3 {
        fill: none;
      }

      .cls-3 {
        stroke: #63a043;
      }

      .cls-5 {
        fill: #63a043;
      }

      .cls-5, .cls-4 {
        stroke-width: 0px;
      }
    </style>
  </defs>
  <g>
    <path class="cls-2" d="m285.2,187.88c0,2.99-.76,5.89-2.22,8.72"/>
    <path class="cls-1" d="m285.2,187.88c-.74,2.9-1.47,5.82-2.22,8.72v.02c-9.12,36.05-18.26,72.11-27.38,108.16-.35,1.4-1.36,2.53-2.72,3.01-16.66,5.93-41.66,12.59-72.49,12.96-33.54.39-60.57-6.85-77.9-13.02-1.25-.45-2.22-1.46-2.64-2.73l-35.48-109.15-.02-.06c-1.19-2.56-1.81-5.22-1.81-7.91,0-13.41,15.26-25.42,39.32-33.47,1.64-5.26.3-13.82.95-17.51,1.62-9.28,8.49-19.49,18.32-20.28-2.55-19.68,6.7-38.12,23.32-48.43,8.34-5.18,17.42-9.13,26.75-11.65,6.96-1.87,22.28-6.15,28.56-1.4-5.88,8.38-15.34,18.73-7.89,29.95,2.98,4.51,6.78,2.68,15.6,6.34,3.87,1.63,20.12,9.05,24.98,24.92.91,3.01,3.22,12.23-1.68,24.95,2.49.43,5.27,1.14,7.73,2.41,5.75,2.99,11.6,7.58,15.08,13.52,19.56,7.89,31.63,18.73,31.63,30.64Z"/>
  </g>
  <g>
    <g>
      <g>
        <path class="cls-4" d="m285.4,188.54c-.74,2.89-1.47,5.79-2.22,8.67v.02c-10.26,19.97-55.21,35.02-109.1,35.02s-100.02-15.43-109.51-35.78l-.02-.06c-1.19-2.55-1.81-5.19-1.81-7.87,0-13.35,15.26-25.3,39.32-33.3-.63,2.01-1.69,3.54-3.5,4.11-7.86,2.49-13.57,8.73-16.44,16.23-5.55,4.11-8.64,8.66-8.64,13.46,0,5.27,3.72,10.24,10.33,14.65,16.38,10.95,50.56,18.48,90.06,18.48,41.59,0,77.27-8.34,92.5-20.23,5.08-3.97,7.89-8.32,7.89-12.9,0-6.87-6.35-13.25-17.18-18.54.07-.65.11-1.28.07-1.9-.26-3.61-1.4-7.04-3.16-10.16l-.22-.39c19.56,7.86,31.63,18.63,31.63,30.49Z"/>
        <path class="cls-4" d="m283.18,197.23c-9.12,35.87-18.26,71.76-27.38,107.63-.35,1.4-1.36,2.51-2.72,3-16.66,5.9-41.66,12.53-72.49,12.9-33.54.39-60.57-6.81-77.9-12.96-1.25-.45-2.22-1.45-2.64-2.72l-35.48-108.62c9.49,20.35,54.91,35.78,109.51,35.78s98.85-15.04,109.1-35.02Z"/>
        <path class="cls-4" d="m264.01,185.99c6.48,4.95,3.7,11.24,2.36,15.95-15.23,11.9-50.91,20.23-92.5,20.23s-73.68-7.54-90.06-18.48c-4.62-7.93-4.88-19.88-1.69-28.11,2.87-7.5,8.58-13.74,16.44-16.23,1.81-.58,2.87-2.1,3.5-4.11,1.64-5.23.3-13.76.95-17.42,1.62-9.23,8.49-19.4,18.32-20.18-2.55-19.58,6.7-37.94,23.32-48.19,8.34-5.16,17.42-9.08,26.75-11.6,6.96-1.86,22.28-6.12,28.56-1.4-5.88,8.34-15.34,18.63-7.89,29.8,2.98,4.49,6.78,2.66,15.6,6.31,3.87,1.62,20.12,9.01,24.98,24.8.91,3,3.22,12.17-1.68,24.83,2.49.43,5.27,1.14,7.73,2.4,5.75,2.98,11.6,7.54,15.08,13.46l.22.39c1.77,3.13,2.9,6.55,3.16,10.16.04.61,0,1.25-.07,1.9-.32,2.85-1.43,5.88-.32,8.54,1.21,2.92,4.84,5.12,7.24,6.94Z"/>
      </g>
      <g>
        <path class="cls-3" d="m253.77,158.04c19.56,7.86,31.63,18.63,31.63,30.49,0,2.98-.76,5.86-2.22,8.67"/>
        <path class="cls-3" d="m274.26,189.04c0-6.87-6.35-13.25-17.18-18.54.07-.65.11-1.28.07-1.9"/>
        <path class="cls-3" d="m98.56,159.35c-7.86,2.49-13.57,8.73-16.44,16.23-5.55,4.11-8.64,8.66-8.64,13.46"/>
        <path class="cls-3" d="m64.55,196.41c-1.19-2.55-1.81-5.19-1.81-7.87,0-13.35,15.26-25.3,39.32-33.3"/>
        <path class="cls-3" d="m283.18,197.23c-10.26,19.97-55.21,35.02-109.1,35.02s-100.02-15.43-109.51-35.78"/>
        <path class="cls-3" d="m64.55,196.41l.02.06,35.48,108.62c.43,1.27,1.4,2.27,2.64,2.72,17.33,6.14,44.36,13.35,77.9,12.96,30.83-.37,55.83-7,72.49-12.9,1.36-.48,2.36-1.6,2.72-3,9.12-35.87,18.26-71.76,27.38-107.63v-.02c.74-2.89,1.47-5.79,2.22-8.67"/>
        <path class="cls-3" d="m274.26,189.04c0,4.58-2.81,8.94-7.89,12.9-15.23,11.9-50.91,20.23-92.5,20.23s-73.68-7.54-90.06-18.48c-6.61-4.41-10.33-9.38-10.33-14.65"/>
        <path class="cls-3" d="m98.56,159.35c1.81-.58,2.87-2.1,3.5-4.11,1.64-5.23.3-13.76.95-17.42,1.62-9.23,8.49-19.4,18.32-20.18-2.55-19.58,6.7-37.94,23.32-48.19,8.34-5.16,17.42-9.08,26.75-11.6,6.96-1.86,22.28-6.12,28.56-1.4-5.88,8.34-15.34,18.63-7.89,29.8,2.98,4.49,6.78,2.66,15.6,6.31,3.87,1.62,20.12,9.01,24.98,24.8.91,3,3.22,12.17-1.68,24.83,2.49.43,5.27,1.14,7.73,2.4,5.75,2.98,11.6,7.54,15.08,13.46l.22.39c1.77,3.13,2.9,6.55,3.16,10.16"/>
        <path class="cls-3" d="m257.08,170.5c-.32,2.85-1.43,5.88-.32,8.54,1.21,2.92,4.84,5.12,7.24,6.94,6.48,4.95,3.7,11.24,2.36,15.95"/>
        <path class="cls-3" d="m83.81,203.69c-4.62-7.93-4.88-19.88-1.69-28.11"/>
      </g>
    </g>
    <path class="cls-5" d="m88.09,205.61c28.74,10.2,59.49,12.91,89.78,13.77,22.73.58,45.66-2.06,67.4-8.86,7.24-2.27,14.38-4.99,21.1-8.58-6.51,3.98-13.63,6.91-20.8,9.49-29,10.18-60.23,11.42-90.62,8.72-22.75-1.92-45.73-5.63-66.87-14.54h0Z"/>
    <path class="cls-5" d="m105.4,162.63c13.68,9.85,28.02,19.27,44.37,23.53,12.25,2.77,24.93,4.16,37.36,1.94,4.13-.75,8.25-1.86,12.09-3.81-3.27,2.88-7.36,4.72-11.49,6.16-12.58,4.12-26.34,3.47-39.08.58-17.01-4.43-31.95-15.24-43.26-28.4h0Z"/>
    <path class="cls-5" d="m125.52,120.39c7.4,5.16,15.05,10.19,23.8,12.45,8.71,1.91,18.03,2.84,26.45-.84-1.73,1.57-3.92,2.57-6.13,3.37-6.74,2.26-14.14,1.92-20.99.39-9.23-2.45-17.12-8.18-23.13-15.36h0Z"/>
  </g>
</svg>